<?xml version="1.0" encoding="UTF-8"?><svg id="Layer_2" xmlns="http://www.w3.org/2000/svg" viewBox="0 0 172.72 80.86"><defs><style>.cls-1,.cls-2,.cls-3{stroke:#231f20;stroke-miterlimit:10;}.cls-1,.cls-4{fill:#fff;}.cls-2,.cls-5{fill:#231f20;}.cls-4,.cls-5{stroke-width:0px;}.cls-3{fill:#808285;}</style></defs><g id="No_Background"><g id="SubTitle"><path class="cls-5" d="m41.23,72.36h2.63c1.35,0,2.26.76,2.26,1.98,0,1.37-1.02,2.03-2.3,2.03h-1.36v2.52h-1.23v-6.53Zm1.23,3.02h1.23c.74,0,1.19-.32,1.19-1.01s-.51-1.02-1.16-1.02h-1.26v2.03Z"/><path class="cls-5" d="m48.2,71.98v2.67c.22-.35.63-.73,1.43-.73.86,0,1.63.5,1.63,1.86v3.11h-1.17v-2.93c0-.7-.27-1.07-.88-1.07-.79,0-1.02.56-1.02,1.4v2.6h-1.17v-6.91h1.17Z"/><path class="cls-5" d="m56.94,76.45c0,1.44-.85,2.55-2.37,2.55s-2.33-1.07-2.33-2.53.88-2.55,2.39-2.55c1.4,0,2.31,1.01,2.31,2.53Zm-3.51,0c0,.98.45,1.61,1.17,1.61s1.15-.62,1.15-1.6c0-1.04-.41-1.61-1.16-1.61s-1.15.55-1.15,1.61Z"/><path class="cls-5" d="m57.38,74.03h.78v-1.35h1.17v1.35h.99v.9h-.99v2.55c0,.4.11.58.53.58.09,0,.23,0,.35-.02v.83c-.25.09-.59.09-.84.09-.88,0-1.2-.47-1.2-1.3v-2.72h-.78v-.9Z"/><path class="cls-5" d="m65.5,76.45c0,1.44-.85,2.55-2.37,2.55s-2.33-1.07-2.33-2.53.88-2.55,2.39-2.55c1.4,0,2.31,1.01,2.31,2.53Zm-3.51,0c0,.98.45,1.61,1.17,1.61s1.15-.62,1.15-1.6c0-1.04-.41-1.61-1.16-1.61s-1.15.55-1.15,1.61Z"/><path class="cls-5" d="m70.8,78.35c0,1.56-.6,2.51-2.35,2.51s-2.06-.93-2.12-1.52h1.2c.11.4.42.65.97.65.95,0,1.15-.59,1.15-1.6v-.29c-.25.46-.67.74-1.42.74-1.25,0-2.01-1.02-2.01-2.37,0-1.54.91-2.55,2.11-2.55.86,0,1.23.41,1.31.67,0-.16.04-.47.05-.55h1.11c0,.38-.01.93-.01,1.4v2.92Zm-3.37-1.93c0,.9.46,1.46,1.12,1.46.89,0,1.14-.61,1.14-1.51s-.19-1.5-1.11-1.5c-.69,0-1.15.55-1.15,1.55Z"/><path class="cls-5" d="m72.07,75.35c0-.55,0-.96,0-1.32h1.15c.02.12.03.57.03.9.23-.59.77-1,1.58-1.01v1.13c-.98,0-1.58.34-1.58,1.64v2.2h-1.17v-3.54Z"/><path class="cls-5" d="m79.38,77.7c0,.46.04,1.06.07,1.19h-1.12c-.04-.1-.07-.35-.07-.53-.17.29-.52.64-1.41.64-1.16,0-1.65-.76-1.65-1.51,0-1.1.88-1.6,2.31-1.6h.74v-.34c0-.37-.13-.77-.85-.77-.65,0-.78.3-.85.66h-1.12c.07-.8.56-1.52,2.01-1.51,1.26,0,1.95.51,1.95,1.64v2.13Zm-1.14-1.07h-.63c-.86,0-1.24.25-1.24.79,0,.4.26.72.78.72.96,0,1.08-.66,1.08-1.38v-.14Z"/><path class="cls-5" d="m81.85,78.4v2.36h-1.17v-5.55c0-.39,0-.79,0-1.17h1.14c.02.14.04.44.04.66.23-.4.68-.77,1.47-.77,1.1,0,1.94.92,1.94,2.42,0,1.72-.94,2.66-2.12,2.66-.72,0-1.09-.28-1.29-.6Zm2.21-2.02c0-.94-.4-1.51-1.1-1.51-.84,0-1.16.54-1.16,1.58s.28,1.59,1.1,1.59c.77,0,1.16-.61,1.16-1.67Z"/><path class="cls-5" d="m87.41,71.98v2.67c.22-.35.63-.73,1.43-.73.86,0,1.63.5,1.63,1.86v3.11h-1.17v-2.93c0-.7-.27-1.07-.88-1.07-.79,0-1.02.56-1.02,1.4v2.6h-1.17v-6.91h1.17Z"/><path class="cls-5" d="m92.36,74.03c.6,1.89,1.03,3.32,1.13,3.78h0c.12-.51.43-1.61,1.08-3.78h1.17l-1.67,5.02c-.47,1.4-.85,1.8-1.96,1.8-.13,0-.38,0-.59-.03v-.96c.1.01.25.02.37.02.53,0,.78-.2,1-.83l-1.78-5.02h1.26Z"/><path class="cls-5" d="m104.97,74.8l-1.72,2.38c-.76,1.07-1.3,1.79-2.66,1.79s-2.03-.91-2.03-1.79.58-1.48,1.79-2.07c.72-.31,1.32-.66,1.32-1.28,0-.39-.22-.75-.69-.75-.42,0-.7.3-.7.77,0,.4.32.73.73,1.12l3.99,3.9h-1.53l-3.47-3.41c-.44-.43-.81-.91-.81-1.53,0-.94.68-1.68,1.78-1.68s1.73.73,1.73,1.56-.59,1.3-1.77,1.89c-.94.42-1.18.89-1.18,1.35s.34.92.95.92c.71,0,1.03-.34,1.83-1.47l1.2-1.71h1.21Z"/><path class="cls-5" d="m108.53,72.36h2.5c1.88,0,3.12,1.25,3.12,3.19s-1.21,3.34-3.17,3.34h-2.45v-6.53Zm1.22,5.53h1.17c1.35,0,1.96-.99,1.96-2.33,0-1.14-.57-2.2-1.96-2.2h-1.17v4.53Z"/><path class="cls-5" d="m116.09,76.7c0,.74.37,1.36,1.09,1.36.63,0,.82-.28.96-.6h1.18c-.18.6-.71,1.53-2.16,1.53-1.57,0-2.24-1.21-2.24-2.48,0-1.5.76-2.6,2.29-2.6,1.63,0,2.18,1.22,2.18,2.38,0,.16,0,.27-.02.41h-3.28Zm2.11-.75c0-.64-.29-1.18-1.01-1.18s-1.01.49-1.08,1.18h2.08Z"/><path class="cls-5" d="m121.18,77.45c.11.44.46.68,1.01.68s.78-.22.78-.57-.21-.51-.99-.7c-1.52-.37-1.79-.84-1.79-1.52s.5-1.43,1.9-1.43,1.9.78,1.95,1.44h-1.12c-.05-.22-.21-.6-.88-.6-.52,0-.69.24-.69.49,0,.28.17.42.99.61,1.57.37,1.82.9,1.82,1.62,0,.82-.63,1.51-2.02,1.51s-2.01-.69-2.12-1.55h1.16Z"/><path class="cls-5" d="m125.12,71.98h1.17v1.15h-1.17v-1.15Zm0,2.05h1.17v4.85h-1.17v-4.85Z"/><path class="cls-5" d="m131.85,78.35c0,1.56-.6,2.51-2.35,2.51s-2.06-.93-2.12-1.52h1.2c.11.4.42.65.97.65.95,0,1.15-.59,1.15-1.6v-.29c-.25.46-.67.74-1.42.74-1.25,0-2.01-1.02-2.01-2.37,0-1.54.91-2.55,2.11-2.55.86,0,1.23.41,1.31.67,0-.16.04-.47.05-.55h1.11c0,.38-.01.93-.01,1.4v2.92Zm-3.37-1.93c0,.9.46,1.46,1.12,1.46.89,0,1.14-.61,1.14-1.51s-.19-1.5-1.11-1.5c-.69,0-1.15.55-1.15,1.55Z"/><path class="cls-5" d="m133.12,75.26c0-.42,0-.86,0-1.22h1.14c.03.13.04.53.05.68.17-.34.57-.79,1.45-.79.95,0,1.61.62,1.61,1.87v3.1h-1.17v-2.96c0-.61-.22-1.04-.86-1.04-.69,0-1.03.44-1.03,1.34v2.66h-1.17v-3.63Z"/></g><g id="Icon"><rect class="cls-3" x="55.75" y="5.94" width="74.37" height="41.62"/><rect class="cls-2" x="116.85" y=".5" width="10.51" height="4.22"/><ellipse class="cls-1" cx="91.3" cy="26.61" rx="19.22" ry="18.9"/><ellipse class="cls-2" cx="91.45" cy="26.75" rx="14.65" ry="14.42"/><ellipse class="cls-1" cx="91.3" cy="26.75" rx="7.36" ry="7.24"/><rect class="cls-4" x="83.95" y="33.62" width="14.71" height="11.89"/></g><g id="Title"><path class="cls-5" d="m47.21,50.98c-.5-.06-1.31.03-1.84.2-2.45.75-7.75,6.38-10.81,9.67-2.7,2.9-4.49,5.02-5.68,6.55-1.37,1.76-1.62,2.15-2.12,1.95-.31-.11-.61-.59-.36-1.5.45-1.59,3.23-5.15,6.63-8.39,4.29-4.07,8.08-6.77,10.92-7.97-1.11.28-2.17.7-3.01,1.11-4.6,2.31-8.3,4.93-11.03,7.08-2.59,2.03-6.6,4.65-9.7,7.3-.25.42-.56.89-.86,1.25-.81,1-1.59,1.25-1.84,1.11-.28-.14-.08-.7.39-1.17.7-.72,1.11-1,1.67-1.48,1.17-1.73,3.18-5.02,4.49-6.91,1.81-2.59,4.93-5.74,8.22-7.16-.45.03-1.06.17-1.53.31-1.2.36-2.54,1.06-4.35,2.28-1.92,1.28-3.62,3.04-5.43,4.96-2.62,2.79-4.74,5.1-6.46,6.52-3.57,3.01-7.8,4.63-11.01,4.18-2.54-.33-3.71-1.98-3.46-4.21.2-1.87,1.53-4.35,3.93-6.05,1.84-1.34,3.79-1.98,5.43-2.2-.22-.17-.47-.64-.47-1.31,0-1.2.61-3.2,3.12-4.85,1.95-1.28,5.02-2.2,8.64-2.28,5.21-.08,9.31,1.2,11.48,1.81.86.25,1.98.67,2.34.89.2.11.42.28.31.39-.06.08-.17-.03-.45-.17-.28-.14-.64-.31-.98-.42-.56.06-1.28.56-2.17,1.7-1.03,1.31-2.42,3.23-4.43,5.77-1.48,1.81-3.15,3.51-5.02,5.32,2.42-2.06,5.93-4.54,7.8-5.99,3.87-3.06,7.22-5.15,11.15-7.08.86-.42,4.12-1.73,6.38-1.56.56.03.95.39.78.45-.17.08-.28-.06-.67-.11Zm-26.5.25c-2.93.08-5.93.7-8.16,1.95-2.28,1.28-3.18,2.9-3.18,4.01,0,.64.22,1.09.5,1.17.72-.06,1.34-.06,2.12.03,2.09.25,3.4,1.84,2.84,3.59-.08.22-.33.61-.45.45-.08-.11.06-.28.08-.45.45-1.62-.67-2.93-2.56-3.09-2.06-.17-4.9.75-7.41,2.56-1.84,1.31-3.73,3.46-3.96,5.29-.22,1.95.67,3.4,3.09,3.59,3.06.25,6.6-1.67,10.11-4.63,1.89-1.56,3.2-2.84,5.99-5.46,2.4-2.26,3.79-3.65,6.21-5.29,1.73-1.2,3.57-2.01,4.51-2.28.64-.19,1.64-.33,2.37-.36-2.54-.61-6.91-1.23-12.12-1.09Z"/><path class="cls-5" d="m40.91,63.16c-1.39.98-3.48,1.25-4.07.98-1.92,1.67-3.51,3.98-2.54,4.49.61.31,2.12-.2,3.2-.89,1.11-.72,2.76-2.09,3.54-2.81.2-.17.28-.22.39-.11.11.11-.03.28-.14.39-.95.86-1.98,1.76-3.2,2.59-1.62,1.11-2.87,1.42-3.96,1.34-1.03-.08-1.45-.75-1.53-1.56-.08-.7.28-2.2,1.59-3.62,2.17-2.37,6.27-3.79,7.24-3.23.92.53.53,1.7-.53,2.45Zm-3.9.81c.42.14,1.81-.31,3.04-1.28.92-.72,1.53-1.5,1.23-1.73-.33-.28-2.9,1.67-4.26,3.01Z"/><path class="cls-5" d="m55.7,54.18c-.75.2-1.7.86-2.2,1.23-2.84,2.15-5.54,4.71-8.67,7.91-2.26,2.31-4.65,4.99-4.1,5.38.31.22,1.34-.31,2.73-1.28.81-.56,2.34-1.87,3.01-2.45.14-.11.28-.25.42-.11.14.11-.03.25-.14.33-.67.61-2.15,1.89-3.18,2.62-1.42,1-2.48,1.53-3.26,1.34-.89-.22-1.31-1.28-.59-2.59.53-.98,1.84-2.45,3.59-4.24,3.01-3.06,6.21-5.88,8.11-7.16.61-.42,1.17-.67,1.7-.84.45-.14,1.89-.22,2.59-.19l-.03.06Z"/><path class="cls-5" d="m56.62,62.15c-.53.61-1.25,1.34-1.98,1.98-2.59,2.23-3.34,2.79-4.46,3.54-.95.67-2.48,1.53-3.73,1.45-1.87-.08-1.98-2.34.28-4.49,1.09-1.03,3.15-2.37,5.91-3.32-1.2,0-2.79.28-3.51.53-.95.33-.95.89-1.09.67-.31-.45,0-1.2.89-1.42.92-.25,2.62-.28,4.85-.03.14.03.17,0,.22.08.03.08-.08.11-.2.2-2.26,1.48-5.04,4.07-5.96,5.18-.89,1.06-1.37,1.84-.95,2.06.42.2,1.81-.47,2.76-1.2,1.98-1.48,3.29-2.76,4.82-4.54,1.23-1.39.39-1.5.64-1.81.22-.31,2.42-.86,2.15,0-.11.33-.42.86-.64,1.11Z"/><path class="cls-5" d="m62.47,66.58c-.86,1.03-1.42,1.76-1,1.95.42.22,1.89-.78,2.67-1.39.89-.7,1.95-1.62,2.62-2.23.17-.14.25-.2.36-.06.11.11,0,.28-.14.36-.78.7-1.89,1.64-2.59,2.2-.84.67-2.28,1.67-3.4,1.67-1.03,0-1.67-.98-.81-2.48-1.64,1.45-3.15,2.56-4.07,2.48-1.89-.17-1.37-3.23.64-5.21,2.56-2.62,6.52-3.79,7.72-3.09.39.19.47.86-.61,1.89,1.11-.92,1.76-1.37,2.23-1.5.61-.2,1.67-.28,2.03-.25-2.4,2.15-4.68,4.51-5.66,5.66Zm-3.85-1.64c-1.73,1.64-3.04,3.46-2.4,3.73.53.25,2.95-1.48,5.32-3.9,1.09-1.09,3.29-3.18,2.7-3.62-.53-.42-2.67.98-5.63,3.79Z"/><path class="cls-5" d="m71.47,59.2c-.36.31-1.2.75-1.98,1.03-.11.03-.22.06-.25-.06-.06-.11.03-.17.14-.2.7-.28,1.53-.72,1.89-1.67-.45-.17-.61-.81-.45-1.25.25-.67.78-.92,1.37-.81.59.11.86.81.59,1.45-.31.72-1,1.23-1.31,1.5Z"/><path class="cls-5" d="m75.2,60.34c-.72.33-1.92.89-2.31,1.31-.31.36-.33.95-.25,1.42.25,1.39.59,3.32-1.89,4.96,1.81-.84,3.51-2.03,4.76-3.12.14-.11.25-.14.33-.03s0,.22-.08.31c-1.67,1.5-3.68,2.68-4.88,3.2-.95.42-2.79.84-4.04.75-.72-.06-1.31-.39-1.28-1.14.03-.45.36-1.11.95-1.73.22-.22.72-.72,1.06-1,.7-.58,1.2-.75,1.5-.7,1.11-.95,2.62-2.26,3.32-3.06.67-.81,1-1.31,1.64-1.92.7-.64,1.89-1.03,2.81-.75.47.14,0,.72-1.64,1.5Zm-5.88,4.51c-.11.36-.36.78-1.06,1.23-.33.25-1.2.56-1.59.86-.45.33-.64.67-.67.98-.03.47.25.78.7.78,1,0,2.03-.81,3.12-2.03.98-1.09,2.03-2.79,2.48-4.54-.75.84-1.92,1.87-2.98,2.73Z"/><path class="cls-5" d="m128.11,50.98c-.5-.06-1.31.03-1.84.2-2.45.75-7.75,6.38-10.81,9.67-2.7,2.9-4.49,5.02-5.68,6.55-1.37,1.76-1.62,2.15-2.12,1.95-.31-.11-.61-.59-.36-1.5.45-1.59,3.23-5.15,6.63-8.39,4.29-4.07,8.08-6.77,10.92-7.97-1.11.28-2.17.7-3.01,1.11-4.6,2.31-8.3,4.93-11.03,7.08-2.59,2.03-6.6,4.65-9.7,7.3-.25.42-.56.89-.86,1.25-.81,1-1.59,1.25-1.84,1.11-.28-.14-.08-.7.39-1.17.7-.72,1.11-1,1.67-1.48,1.17-1.73,3.18-5.02,4.49-6.91,1.81-2.59,4.93-5.74,8.22-7.16-.45.03-1.06.17-1.53.31-1.2.36-2.54,1.06-4.35,2.28-1.92,1.28-3.62,3.04-5.43,4.96-2.62,2.79-4.74,5.1-6.46,6.52-3.57,3.01-7.8,4.63-11.01,4.18-2.54-.33-3.71-1.98-3.45-4.21.19-1.87,1.53-4.35,3.93-6.05,1.84-1.34,3.79-1.98,5.43-2.2-.22-.17-.47-.64-.47-1.31,0-1.2.61-3.2,3.12-4.85,1.95-1.28,5.02-2.2,8.64-2.28,5.21-.08,9.31,1.2,11.48,1.81.86.25,1.98.67,2.34.89.2.11.42.28.31.39-.06.08-.17-.03-.45-.17-.28-.14-.64-.31-.98-.42-.56.06-1.28.56-2.17,1.7-1.03,1.31-2.42,3.23-4.43,5.77-1.48,1.81-3.15,3.51-5.02,5.32,2.42-2.06,5.93-4.54,7.8-5.99,3.87-3.06,7.22-5.15,11.15-7.08.86-.42,4.12-1.73,6.38-1.56.56.03.95.39.78.45-.17.08-.28-.06-.67-.11Zm-26.5.25c-2.93.08-5.93.7-8.16,1.95-2.28,1.28-3.18,2.9-3.18,4.01,0,.64.22,1.09.5,1.17.72-.06,1.34-.06,2.12.03,2.09.25,3.4,1.84,2.84,3.59-.08.22-.33.61-.45.45-.08-.11.06-.28.08-.45.45-1.62-.67-2.93-2.56-3.09-2.06-.17-4.9.75-7.41,2.56-1.84,1.31-3.73,3.46-3.96,5.29-.22,1.95.67,3.4,3.09,3.59,3.07.25,6.6-1.67,10.11-4.63,1.89-1.56,3.2-2.84,5.99-5.46,2.4-2.26,3.79-3.65,6.21-5.29,1.73-1.2,3.57-2.01,4.51-2.28.64-.19,1.64-.33,2.37-.36-2.54-.61-6.91-1.23-12.12-1.09Z"/><path class="cls-5" d="m120.75,65.75c-2.65,2.7-4.82,3.65-5.93,3.37-1.67-.42-1.81-3.04.61-5.49,2.84-2.87,6.1-3.43,7.27-2.81.89.45.39,2.56-1.95,4.93Zm-3.68-.78c-1.62,1.7-2.93,3.32-2.17,3.76.67.39,2.79-1.37,5.32-3.93,1.11-1.11,2.81-3.23,2.31-3.65-.58-.47-2.9,1.17-5.46,3.82Z"/><path class="cls-5" d="m126.08,64.38c1.62-1.31,5.1-3.87,6.74-3.71,1.28.11,1.14,1.23.33,2.45,1.14-.81,3.71-2.65,5.1-2.45,1.89.25,1.28,1.92-1.11,4.1-.89.81-1.64,1.56-2.23,2.17-1,1.03-1.17,1.45-.89,1.67.28.19,1.42-.31,2.51-1.09,1-.7,2.26-1.78,3.04-2.48.08-.08.22-.2.33-.06.11.14-.03.28-.17.42-.84.75-2.09,1.76-3.12,2.51-1.11.81-2.73,1.56-3.79,1.14-.81-.31-.98-1.31-.11-2.51.72-.98,1.25-1.48,2.4-2.54.92-.89,3.37-2.59,2.76-2.93-.36-.2-2.54,1-4.49,2.34-1.59,1.06-2.7,2.2-3.54,2.98-1.03,1-1.73,1.81-2.48,2.79-.5,0-.98-1.09-.61-1.7.58-1.09,1.64-2.34,2.93-3.48.98-.89,3.4-2.56,2.76-2.93-.5-.28-4.88,2.37-6.77,4.15-1.78,1.7-2.54,2.62-3.54,3.96-.5,0-.95-1.06-.61-1.7.58-1.09,1.53-2.4,3.12-4.04.89-.98,1.59-1.53,2.26-1.95.89-.59,2.17-.75,3.09-.75-1,.7-2.65,2.17-3.9,3.62Z"/><path class="cls-5" d="m147,63.16c-1.39.98-3.48,1.25-4.07.98-1.92,1.67-3.51,3.98-2.54,4.49.61.31,2.12-.2,3.2-.89,1.11-.72,2.76-2.09,3.54-2.81.19-.17.28-.22.39-.11.11.11-.03.28-.14.39-.95.86-1.98,1.76-3.2,2.59-1.62,1.11-2.87,1.42-3.96,1.34-1.03-.08-1.45-.75-1.53-1.56-.08-.7.28-2.2,1.59-3.62,2.17-2.37,6.27-3.79,7.24-3.23.92.53.53,1.7-.53,2.45Zm-3.9.81c.42.14,1.81-.31,3.04-1.28.92-.72,1.53-1.5,1.23-1.73-.33-.28-2.9,1.67-4.26,3.01Z"/><path class="cls-5" d="m158.14,65.41c-.84.72-1.84,1.62-3.12,2.51-1.25.84-2.73,1.56-3.79,1.14-.81-.31-.98-1.31-.11-2.51.72-.98,1.25-1.48,2.4-2.54.92-.89,3.37-2.59,2.76-2.93-.53-.31-4.88,2.37-6.77,4.15-1.78,1.7-2.54,2.62-3.54,3.96-.5,0-.95-1.06-.61-1.7.58-1.09,1.53-2.4,3.12-4.04.92-.98,1.59-1.53,2.26-1.95.89-.59,2.17-.75,3.09-.75-1,.7-2.65,2.17-3.9,3.62,1.62-1.31,5.13-3.96,6.74-3.71,1.87.25,1.31,1.89-1.11,4.1-.89.81-1.67,1.59-2.23,2.17-1,1.03-1.17,1.45-.89,1.67.25.17,1.42-.31,2.51-1.09,1-.7,2.26-1.78,3.04-2.48.08-.08.22-.2.33-.06.14.14-.03.28-.17.42Z"/><path class="cls-5" d="m170.65,56.47c-.81.17-1.76.78-2.23,1.14-.95.7-2.7,2.17-4.32,3.76.36,0,1.48-.06,2.09,0,.03,0,.2.03.14.2-.03.14-.2.14-.31.14-.5,0-1.7.03-2.34.08-.5.5-1,1-1.5,1.53-2.9,2.98-4.43,4.71-3.68,5.15.47.28,1.67-.39,2.62-1.09.7-.5,2.09-1.64,2.95-2.45.11-.11.33-.22.42-.11.11.17-.03.31-.19.45-1.03.92-2.01,1.81-3.09,2.54-1.23.86-2.84,1.7-3.98,1.25-.89-.33-.86-1.42-.22-2.48.61-.98,2.01-2.56,4.21-4.79-.47.03-1.25.08-1.64.11-.08,0-.31.03-.28-.14.03-.11.2-.17.31-.19.33-.06,1.31-.11,2.01-.14,2.31-2.28,3.85-3.48,4.99-4.15.42-.25,1.06-.58,1.56-.72.56-.14,1.81-.19,2.51-.17v.08Z"/><path class="cls-5" d="m170.9,60.34c-.72.33-1.92.89-2.31,1.31-.31.36-.33.95-.25,1.42.25,1.39.58,3.32-1.89,4.96,1.81-.84,3.51-2.03,4.76-3.12.14-.11.25-.14.33-.03s0,.22-.08.31c-1.67,1.5-3.68,2.68-4.88,3.2-.95.42-2.79.84-4.04.75-.72-.06-1.31-.39-1.28-1.14.03-.45.36-1.11.95-1.73.22-.22.72-.72,1.06-1,.7-.58,1.2-.75,1.5-.7,1.11-.95,2.62-2.26,3.32-3.06.67-.81,1-1.31,1.64-1.92.7-.64,1.89-1.03,2.81-.75.47.14,0,.72-1.64,1.5Zm-5.88,4.51c-.11.36-.36.78-1.06,1.23-.33.25-1.2.56-1.59.86-.45.33-.64.67-.67.98-.03.47.25.78.7.78,1,0,2.03-.81,3.12-2.03.98-1.09,2.03-2.79,2.48-4.54-.75.84-1.92,1.87-2.98,2.73Z"/></g></g></svg>